<svg width="18" height="18" viewBox="0 0 18 18" fill="none" xmlns="http://www.w3.org/2000/svg">
<path fill-rule="evenodd" clip-rule="evenodd" d="M17.5468 8.70686C17.5468 4.00876 13.7382 0.200195 9.04011 0.200195C4.34201 0.200195 0.533447 4.00876 0.533447 8.70686C0.533447 13.405 4.34201 17.2135 9.04011 17.2135C10.0655 17.2135 11.4741 16.8395 13.266 16.0913L16.1635 17.2216L16.2494 17.2495C16.6239 17.3477 17.0209 17.1516 17.165 16.7822C17.2226 16.6344 17.2334 16.4725 17.196 16.3184L16.3881 12.9958L16.5204 12.6792C17.2046 11.0124 17.5468 9.68828 17.5468 8.70686ZM15.4366 12.2643L15.17 12.8957L15.8934 15.8709L13.2512 14.8402L12.5297 15.1395C11.0079 15.7536 9.83243 16.0533 9.04012 16.0533C4.98267 16.0533 1.69346 12.7641 1.69346 8.70667C1.69346 4.64921 4.98267 1.36 9.04012 1.36C13.0976 1.36 16.3868 4.64921 16.3868 8.70667C16.3868 9.5152 16.0751 10.7137 15.4366 12.2643Z" fill="#262626"/>
</svg>
