<svg width="20" height="17" viewBox="0 0 20 17" fill="none" xmlns="http://www.w3.org/2000/svg">
<path fill-rule="evenodd" clip-rule="evenodd" d="M10.0081 2.25653L9.5015 1.66447C7.46296 -0.374072 4.21201 -0.235156 2.17347 1.80338C0.134936 3.84192 0.527258 7.78308 2.56579 9.82162C3.39315 10.649 4.63217 11.7945 6.28285 13.2583L7.67155 14.4799L9.23129 15.8338C9.66075 16.2045 10.2953 16.2102 10.7313 15.8473L11.9948 14.7879C14.2076 12.9178 15.8496 11.4449 16.9209 10.3691L17.1989 10.0855L17.4486 9.82162C19.3471 7.77429 19.835 3.79451 17.8439 1.80338L17.6996 1.66447C15.6523 -0.234053 12.5651 -0.326664 10.5739 1.66447L10.0081 2.25653ZM2.99374 2.62348C4.6057 1.01152 7.09948 0.935946 8.65131 2.45491L9.96057 3.98507L11.4126 2.46578C12.9019 0.976858 15.2755 0.998382 16.9109 2.51489L17.0392 2.63877C18.4463 4.04608 18.2069 7.29775 16.598 9.03272L16.3564 9.28802L16.0882 9.56137C15.2002 10.4526 13.884 11.6467 12.1487 13.1338L11.2461 13.9017L9.98924 14.9555L8.43197 13.6038L7.31742 12.6247C5.74693 11.2367 4.5354 10.1265 3.68713 9.29849L3.38606 9.00122C1.70674 7.3219 1.4967 4.12052 2.99374 2.62348Z" fill="#262626"/>
</svg>
