<svg width="12" height="4" viewBox="0 0 12 4" fill="none" xmlns="http://www.w3.org/2000/svg">
<path fill-rule="evenodd" clip-rule="evenodd" d="M1.73324 0.720002C2.37389 0.720002 2.89324 1.23935 2.89324 1.88C2.89324 2.52065 2.37389 3.04 1.73324 3.04C1.09259 3.04 0.573242 2.52065 0.573242 1.88C0.573242 1.23935 1.09259 0.720002 1.73324 0.720002ZM5.98658 0.719788C6.62723 0.719788 7.14657 1.23914 7.14657 1.87979C7.14657 2.52044 6.62723 3.03979 5.98658 3.03979C5.34592 3.03979 4.82658 2.52044 4.82658 1.87979C4.82658 1.23914 5.34592 0.719788 5.98658 0.719788ZM10.2399 0.719788C10.8806 0.719788 11.3999 1.23914 11.3999 1.87979C11.3999 2.52044 10.8806 3.03979 10.2399 3.03979C9.59926 3.03979 9.07991 2.52044 9.07991 1.87979C9.07991 1.23914 9.59926 0.719788 10.2399 0.719788Z" fill="#262626"/>
</svg>
