<svg width="22" height="5" viewBox="0 0 22 5" fill="none" xmlns="http://www.w3.org/2000/svg">
<path fill-rule="evenodd" clip-rule="evenodd" d="M3.26678 4.64024C4.54808 4.64024 5.58678 3.60154 5.58678 2.32024C5.58678 1.03894 4.54808 0.000244141 3.26678 0.000244141C1.98548 0.000244141 0.946777 1.03894 0.946777 2.32024C0.946777 3.60154 1.98548 4.64024 3.26678 4.64024Z" fill="#3897F0"/>
<path fill-rule="evenodd" clip-rule="evenodd" d="M11.0002 4.64024C12.2815 4.64024 13.3202 3.60154 13.3202 2.32024C13.3202 1.03894 12.2815 0.000244141 11.0002 0.000244141C9.71888 0.000244141 8.68018 1.03894 8.68018 2.32024C8.68018 3.60154 9.71888 4.64024 11.0002 4.64024Z" fill="black" fill-opacity="0.15"/>
<path fill-rule="evenodd" clip-rule="evenodd" d="M18.7336 4.64024C20.0149 4.64024 21.0536 3.60154 21.0536 2.32024C21.0536 1.03894 20.0149 0.000244141 18.7336 0.000244141C17.4523 0.000244141 16.4136 1.03894 16.4136 2.32024C16.4136 3.60154 17.4523 4.64024 18.7336 4.64024Z" fill="black" fill-opacity="0.15"/>
</svg>
