<svg width="16" height="19" viewBox="0 0 16 19" fill="none" xmlns="http://www.w3.org/2000/svg">
<path fill-rule="evenodd" clip-rule="evenodd" d="M0.0522461 0.95173V17.6963C0.0522461 17.8995 0.132235 18.0945 0.274915 18.2392C0.574787 18.5433 1.06442 18.5468 1.36855 18.2469L7.97949 11.7284L14.5904 18.2469C14.7351 18.3896 14.9302 18.4696 15.1334 18.4696C15.5605 18.4696 15.9067 18.1234 15.9067 17.6963V0.95173C15.9067 0.73818 15.7336 0.565063 15.5201 0.565063H0.438913C0.225363 0.565063 0.0522461 0.73818 0.0522461 0.95173ZM1.21223 16.7719V1.72499H14.7467V16.7719L8.52244 10.6346C8.22134 10.3377 7.7376 10.3377 7.4365 10.6346L1.21223 16.7719Z" fill="#262626"/>
</svg>
